<?xml version="1.0" encoding="utf-8"?><svg xmlns="http://www.w3.org/2000/svg" xmlns:xlink="http://www.w3.org/1999/xlink" width="1366" height="568" preserveAspectRatio="xMidYMid" viewBox="0 0 1366 568" style="z-index:1;margin-right:-2px;display:block;background-repeat-y:initial;background-repeat-x:initial;background-color:rgb(241, 242, 243);animation-play-state:paused" ><g transform="translate(683,284) scale(1,1) translate(-683,-284)" style="transform:matrix(1, 0, 0, 1, 0, 0);animation-play-state:paused" ><linearGradient id="lg-0.7616327047814602" x1="0" x2="1" y1="0" y2="0" style="animation-play-state:paused" ><stop stop-color="#3e6d8d" offset="0" style="animation-play-state:paused" ></stop>

  
<stop stop-color="#4b9bbe" offset="1" style="animation-play-state:paused" ></stop></linearGradient>
<path d="M 0 0 L 0 553.125 Q 136.6 501.15 273.2 465.847 T 546.4 437.051 T 819.6 328.412 T 1092.8 316.685 T 1366 207.602 L 1366 0 Z" fill="url(#lg-0.7616327047814602)" opacity="0.4" style="opacity:0.4;animation-play-state:paused" ></path>
<path d="M 0 0 L 0 496.302 Q 136.6 514.012 273.2 487.643 T 546.4 379.259 T 819.6 326.727 T 1092.8 300.367 T 1366 255.531 L 1366 0 Z" fill="url(#lg-0.7616327047814602)" opacity="0.4" style="opacity:0.4;animation-play-state:paused" ></path>
<path d="M 0 0 L 0 484.239 Q 136.6 473.721 273.2 452.542 T 546.4 401.89 T 819.6 403.622 T 1092.8 321.331 T 1366 252.018 L 1366 0 Z" fill="url(#lg-0.7616327047814602)" opacity="0.4" style="opacity:0.4;animation-play-state:paused" ></path>
<path d="M 0 0 L 0 520.384 Q 136.6 478.755 273.2 454.302 T 546.4 382.047 T 819.6 347.204 T 1092.8 274.312 T 1366 199.943 L 1366 0 Z" fill="url(#lg-0.7616327047814602)" opacity="0.4" style="opacity:0.4;animation-play-state:paused" ></path>
<path d="M 0 0 L 0 512.832 Q 136.6 544.968 273.2 508.624 T 546.4 393.009 T 819.6 336.202 T 1092.8 338.533 T 1366 230.236 L 1366 0 Z" fill="url(#lg-0.7616327047814602)" opacity="0.4" style="opacity:0.4;animation-play-state:paused" ></path></g></svg>