<?xml version="1.0" encoding="utf-8"?><svg xmlns="http://www.w3.org/2000/svg" xmlns:xlink="http://www.w3.org/1999/xlink" width="1366" height="625" preserveAspectRatio="xMidYMid" viewBox="0 0 1366 625" style="z-index:1;margin-right:-2px;display:block;background-repeat-y:initial;background-repeat-x:initial;background-color:rgb(241, 242, 243);animation-play-state:paused" ><g transform="translate(683,312.5) scale(1,1) translate(-683,-312.5)" style="transform:matrix(1, 0, 0, 1, 0, 0);animation-play-state:paused" ><linearGradient id="lg-0.2929636009871295" x1="0" x2="1" y1="0" y2="0" style="animation-play-state:paused" ><stop stop-color="#3be8b0" offset="0" style="animation-play-state:paused" ></stop>

  
<stop stop-color="#1aafd0" offset="1" style="animation-play-state:paused" ></stop></linearGradient>
<path d="M 0 0 M 0 594.676 Q 136.6 550.783 273.2 543.715 T 546.4 489.951 T 819.6 468.855 T 1092.8 485.055 T 1366 448.062 L 1366 143.165 Q 1229.4 134.274 1092.8 132.311 T 819.6 151.618 T 546.4 112.327 T 273.2 82.122 T 0 80.1433 Z" fill="url(#lg-0.2929636009871295)" opacity="0.4" style="opacity:0.4;animation-play-state:paused" ></path>
<path d="M 0 0 M 0 552.41 Q 136.6 536.433 273.2 534.405 T 546.4 516.682 T 819.6 521.592 T 1092.8 447.402 T 1366 458.47 L 1366 166.072 Q 1229.4 145.233 1092.8 138.423 T 819.6 148.16 T 546.4 84.1626 T 273.2 98.8527 T 0 67.5713 Z" fill="url(#lg-0.2929636009871295)" opacity="0.4" style="opacity:0.4;animation-play-state:paused" ></path>
<path d="M 0 0 M 0 584.057 Q 136.6 536.838 273.2 530.541 T 546.4 546.038 T 819.6 505.439 T 1092.8 477.824 T 1366 451.916 L 1366 148.896 Q 1229.4 143.305 1092.8 139.881 T 819.6 133.837 T 546.4 90.9899 T 273.2 97.4769 T 0 63.9126 Z" fill="url(#lg-0.2929636009871295)" opacity="0.4" style="opacity:0.4;animation-play-state:paused" ></path>
<path d="M 0 0 M 0 577.118 Q 136.6 551.482 273.2 546.16 T 546.4 526.375 T 819.6 485.528 T 1092.8 503.806 T 1366 423.561 L 1366 165.125 Q 1229.4 148.031 1092.8 147.011 T 819.6 97.333 T 546.4 109.513 T 273.2 97.4541 T 0 86.2148 Z" fill="url(#lg-0.2929636009871295)" opacity="0.4" style="opacity:0.4;animation-play-state:paused" ></path></g></svg>